<?xml version="1.0" standalone="no"?>
<!DOCTYPE svg PUBLIC "-//W3C//DTD SVG 20010904//EN"
 "http://www.w3.org/TR/2001/REC-SVG-20010904/DTD/svg10.dtd">
<svg version="1.0" xmlns="http://www.w3.org/2000/svg"
 width="1117.000000pt" height="1280.000000pt" viewBox="0 0 1117.000000 1280.000000"
 preserveAspectRatio="xMidYMid meet">
<g transform="translate(0.000000,1280.000000) scale(0.100000,-0.100000)"
fill="#000000" stroke="none">
<path d="M6335 12794 c-497 -39 -999 -232 -1416 -544 -406 -304 -745 -735
-954 -1210 -92 -208 -181 -512 -201 -685 l-6 -60 47 70 c398 582 847 1074
1259 1379 700 517 1418 723 2536 727 l265 1 -129 63 c-226 110 -509 194 -792
235 -136 19 -489 33 -609 24z"/>
<path d="M8946 11978 c253 -259 578 -610 721 -780 639 -759 938 -1369 1024
-2083 16 -130 16 -440 0 -580 -45 -405 -176 -833 -377 -1235 -45 -90 -81 -166
-80 -167 10 -10 118 79 209 171 500 508 768 1226 719 1925 -39 560 -216 1032
-567 1512 -125 171 -236 297 -427 485 -249 245 -490 431 -810 624 -141 85
-539 290 -564 290 -4 0 64 -73 152 -162z"/>
<path d="M7270 11819 c-544 -60 -1073 -271 -1525 -609 -113 -85 -222 -183
-208 -187 5 -2 61 15 124 37 424 152 760 237 1154 291 214 30 622 33 790 6
495 -79 873 -251 1235 -563 434 -375 812 -918 1259 -1813 56 -112 104 -201
107 -199 13 14 -51 419 -97 615 -169 715 -489 1319 -920 1738 -369 358 -766
567 -1259 662 -102 19 -166 24 -350 28 -124 2 -263 0 -310 -6z"/>
<path d="M4918 10922 c-242 -331 -404 -766 -449 -1207 -15 -155 -6 -443 20
-585 133 -736 656 -1321 1391 -1556 162 -52 486 -103 449 -70 -2 2 -53 38
-114 81 -595 420 -952 844 -1149 1362 -167 441 -198 964 -106 1803 26 239 27
250 20 250 -3 -1 -30 -35 -62 -78z"/>
<path d="M7041 10790 c-169 -22 -366 -82 -521 -160 -202 -102 -354 -215 -535
-402 -131 -134 -179 -193 -275 -338 -62 -95 -197 -356 -188 -365 2 -3 74 41
159 97 656 430 926 563 1289 638 142 30 366 32 500 6 348 -67 702 -262 1160
-637 74 -60 136 -106 138 -100 5 14 -42 130 -113 277 -245 508 -667 856 -1164
960 -132 27 -334 38 -450 24z"/>
<path d="M6308 9738 c-129 -299 -152 -651 -63 -991 142 -549 559 -955 1086
-1058 75 -15 353 -16 388 -2 l24 10 -34 26 c-19 15 -94 71 -167 125 -596 443
-822 809 -1147 1855 -20 64 -40 117 -44 117 -4 0 -24 -37 -43 -82z"/>
<path d="M7050 9501 c0 -4 88 -93 195 -196 320 -307 404 -401 530 -590 184
-276 283 -549 380 -1045 20 -101 38 -186 39 -188 8 -8 92 110 126 178 148 295
174 631 74 945 -62 192 -157 355 -293 497 -115 121 -221 198 -375 273 -144 70
-225 97 -360 120 -95 16 -316 21 -316 6z"/>
<path d="M3625 9206 c-20 -104 30 -504 99 -781 287 -1158 970 -2081 1891
-2556 379 -195 775 -312 1223 -359 603 -63 1304 28 1927 251 280 100 729 300
640 284 -152 -26 -455 -68 -574 -81 -80 -8 -174 -19 -208 -24 -243 -38 -899
-61 -1199 -41 -736 49 -1343 244 -1884 606 -529 354 -1024 924 -1402 1614
-153 280 -348 703 -444 964 -65 177 -60 169 -69 123z"/>
<path d="M9435 8399 c-144 -313 -348 -654 -504 -844 -122 -148 -294 -306 -438
-404 -100 -66 -288 -156 -412 -195 -250 -79 -449 -101 -836 -93 -304 6 -545
32 -1039 112 -54 9 -100 14 -102 12 -2 -2 50 -42 115 -90 303 -221 672 -386
1020 -457 210 -42 428 -57 591 -41 455 46 816 206 1096 485 135 135 209 228
292 366 163 270 257 544 302 883 11 87 13 392 2 420 -6 13 -29 -30 -87 -154z"/>
<path d="M3990 6799 c-124 -66 -345 -213 -497 -331 -456 -353 -933 -863 -1327
-1417 -214 -302 -456 -678 -612 -952 -227 -400 -592 -1169 -756 -1588 -213
-548 -218 -563 -402 -1131 -113 -349 -354 -1196 -343 -1206 3 -3 8 8 11 23 4
15 66 210 137 433 108 336 279 806 431 1189 28 72 248 571 350 796 69 152 363
721 457 882 l76 133 350 0 c1076 0 2025 73 2364 181 143 45 218 105 207 163
-23 125 -502 339 -972 435 -239 49 -406 64 -644 58 -323 -9 -581 -59 -848
-166 l-53 -21 80 117 c45 65 162 224 260 353 306 402 616 745 931 1029 280
252 483 409 721 556 82 51 298 167 328 177 11 3 -4 44 -61 168 -41 90 -79 165
-84 167 -5 1 -52 -20 -104 -48z"/>
</g>
</svg>
